<svg width="488" height="108" viewBox="0 0 488 108" fill="none" xmlns="http://www.w3.org/2000/svg">
<path fill-rule="evenodd" clip-rule="evenodd" d="M29.0726 49.6226V107.845H0V20.5115H58.1453V49.6226H29.0726Z" fill="#FF0033"/>
<path fill-rule="evenodd" clip-rule="evenodd" d="M66.6029 58.1401V0H95.6345V87.2101H37.5713V58.1401H66.6029Z" fill="#2CA9BC"/>
<path d="M329.411 21.1193H342.283V58.148C342.283 65.9206 341.661 70.895 340.417 73.0714C339.173 75.2477 336.5 78.2013 332.396 81.9321C328.354 85.663 325.183 87.5284 322.882 87.5284C320.644 87.5284 317.721 86.1915 314.115 83.5177C310.508 80.844 307.803 77.7038 306 74.0973L316.353 66.8222C316.415 66.8844 316.664 67.2575 317.099 67.9414C317.597 68.5632 318.032 69.1229 318.405 69.6203C318.778 70.0556 319.245 70.553 319.804 71.1127C320.986 72.4185 321.98 73.0714 322.789 73.0714C323.659 73.0714 324.623 72.5739 325.68 71.579C326.737 70.5219 327.608 69.4338 328.292 68.3145C329.038 67.1953 329.411 63.8064 329.411 58.148V21.1193ZM378.585 81.4658C374.171 85.5075 370.844 87.5284 368.605 87.5284C366.367 87.5284 363.009 85.5075 358.532 81.4658C354.117 77.3618 351.381 74.0352 350.324 71.4857C349.64 69.869 349.298 65.7962 349.298 59.2672V48.2612C349.298 41.7322 349.64 37.6594 350.324 36.0427C351.381 33.4932 354.117 30.1977 358.532 26.1559C363.009 22.052 366.367 20 368.605 20C370.844 20 374.171 22.052 378.585 26.1559C383.062 30.1977 385.83 33.4932 386.887 36.0427C387.571 37.6594 387.913 41.7322 387.913 48.2612V59.2672C387.913 65.7962 387.571 69.869 386.887 71.4857C385.83 74.0352 383.062 77.3618 378.585 81.4658ZM365.434 72.3252C366.678 73.5688 367.735 74.1906 368.605 74.1906C369.476 74.1906 370.502 73.5688 371.683 72.3252C372.927 71.0194 373.798 69.8069 374.295 68.6876C374.792 67.5062 375.041 64.366 375.041 59.2672V48.2612C375.041 43.1624 374.792 40.0533 374.295 38.9341C373.798 37.7526 372.927 36.5401 371.683 35.2965C370.502 33.9907 369.476 33.3378 368.605 33.3378C367.735 33.3378 366.678 33.9907 365.434 35.2965C364.253 36.5401 363.413 37.7526 362.916 38.9341C362.418 40.0533 362.17 43.1624 362.17 48.2612V59.2672C362.17 64.366 362.418 67.5062 362.916 68.6876C363.413 69.8069 364.253 71.0194 365.434 72.3252ZM407.021 25.1299C411.995 21.71 415.384 20 417.187 20C418.991 20 421.758 21.6478 425.489 24.9434C429.282 28.1768 431.644 30.4775 432.577 31.8455C433.51 33.1513 433.976 34.8923 433.976 37.0686C433.976 41.2969 433.634 43.8153 432.95 44.6236C431.644 46.6134 429.624 48.9452 426.888 51.619C430.681 55.2255 433.044 57.9925 433.976 59.9201C434.474 61.2259 435.002 65.2055 435.562 71.8588C436.121 78.45 436.401 83.3001 436.401 86.4092H422.411C422.411 83.611 422.162 79.2273 421.664 73.2579C421.167 67.2885 420.607 63.6821 419.986 62.4384C419.426 61.1948 418.742 60.1067 417.934 59.1739H409.632V86.4092H396.761V45.5563C396.761 40.5197 396.388 37.0376 395.642 35.1099C394.958 33.1202 393.465 30.6951 391.165 27.8348L402.357 20C404.347 21.3058 405.902 23.0158 407.021 25.1299ZM409.632 41.0793V48.2612H413.27C414.141 48.2612 415.26 47.5772 416.628 46.2092C417.996 44.8413 418.866 43.6909 419.239 42.7582C419.675 41.7633 419.892 40.7373 419.892 39.6802C419.892 38.6232 419.675 37.6905 419.239 36.8821C418.866 36.0116 418.307 35.0478 417.56 33.9907C416.814 32.9336 416.192 32.4051 415.695 32.4051C414.016 32.4051 411.902 32.8093 409.353 33.6176C409.539 36.0427 409.632 38.5299 409.632 41.0793ZM459.456 39.9601V45.3698H462.254C463.311 45.3698 464.399 44.8102 465.519 43.6909C466.7 42.5095 467.571 41.4213 468.13 40.4264C468.752 39.3693 469.374 36.4157 469.996 31.5656C470.618 26.6533 470.928 23.1712 470.928 21.1193H483.8C483.8 23.5443 483.458 27.3373 482.774 32.4984C482.09 37.6594 481.468 40.8306 480.908 42.012C479.976 44.064 477.613 46.831 473.82 50.3132C478.235 54.1062 481.095 57.3085 482.401 59.9201C483.023 61.2259 483.644 65.1744 484.266 71.7656C484.95 78.2946 485.292 83.1758 485.292 86.4092H472.421C472.421 83.4867 472.11 78.9164 471.488 72.6983C470.928 66.418 470.369 62.7804 469.809 61.7855C467.882 58.3034 465.612 56.5623 463 56.5623H459.456V86.4092H446.585V45.5563C446.585 40.5197 446.212 37.0376 445.465 35.1099C444.781 33.1202 443.289 30.6951 440.988 27.8348L452.181 20C454.171 21.3058 455.881 23.7308 457.311 27.2752C458.741 30.7573 459.456 34.9856 459.456 39.9601Z" stroke="#FF0033" stroke-width="4"/>
<path d="M159.202 19.9659V31.1585H147.077V85.2558H134.206V31.1585H122.08V19.9659H159.202Z" fill="#2CA9BC"/>
<path d="M177.845 45.5223H194.541V56.8081H177.845V73.97H200.137V85.2558H164.974V27.8007L177.845 18.8467H198.645V30.2258H181.296L177.845 32.6508V45.5223Z" fill="#2CA9BC"/>
<path d="M204.814 56.9946V48.2271C204.814 40.4545 205.436 35.4801 206.68 33.3037C207.923 31.1274 210.566 28.1738 214.608 24.443C218.712 20.7121 221.759 18.8467 223.748 18.8467C227.168 18.8467 231.086 20.8365 235.501 24.816C239.915 28.7334 242.713 33.055 243.895 37.7808L233.542 44.9626C232.547 41.6049 230.961 38.5269 228.785 35.7288C226.609 32.8685 225.085 31.4383 224.215 31.4383C222.66 31.4383 220.888 32.9617 218.898 36.0086C218.09 37.19 217.686 41.2629 217.686 48.2271V56.9946C217.686 64.1454 218.09 68.2183 218.898 69.2132C220.888 72.26 222.66 73.7835 224.215 73.7835C225.085 73.7835 226.609 72.5709 228.785 70.1459C230.961 67.6587 232.547 64.9227 233.542 61.938L243.895 69.2132C242.713 73.5037 239.915 77.4521 235.501 81.0586C231.086 84.6029 227.168 86.3751 223.748 86.3751C221.759 86.3751 218.712 84.5097 214.608 80.7788C210.566 77.048 207.923 74.0944 206.68 71.918C205.436 69.7417 204.814 64.7672 204.814 56.9946Z" fill="#2CA9BC"/>
<path d="M279.386 85.2558V55.409H266.515V85.2558H253.643V45.3357C253.643 40.0504 253.27 36.3817 252.524 34.3297C251.84 32.2156 250.348 29.6661 248.047 26.6815L259.24 18.8467C261.229 20.1525 262.939 22.5775 264.369 26.1218C265.8 29.604 266.515 33.8323 266.515 38.8067V44.2165H279.386V19.9659H292.258V85.2558H279.386Z" fill="#2CA9BC"/>
</svg>
